<?xml version="1.0" encoding="utf-8"?>
<!-- Generator: Adobe Illustrator 25.2.0, SVG Export Plug-In . SVG Version: 6.00 Build 0)  -->
<svg version="1.1" id="Capa_1" xmlns="http://www.w3.org/2000/svg" xmlns:xlink="http://www.w3.org/1999/xlink" x="0px" y="0px"
	 viewBox="0 0 512 512" style="enable-background:new 0 0 512 512;" xml:space="preserve">
<style type="text/css">
	.st0{fill:#6D7725;}
</style>
<path class="st0" d="M378.8,231.9h-67.4h-44.2v-25.7c13.7-0.8,38.4-4.6,55.4-20.1c24.2-22.1,22.3-58.3,22.2-59.8
	c-0.3-4.5-4.2-8.1-9.1-8.3c-1.7-0.1-41.3-1.8-65.5,20.3c-2.5,2.3-4.8,4.8-6.9,7.5c-3.5-13-10.2-27.5-22.7-38.8
	c-28.9-26.4-76.4-24.3-78.4-24.2c-4.9,0.2-8.9,3.8-9.1,8.3c-0.1,1.8-2.4,45.2,26.5,71.6c21.2,19.3,52.3,23.4,68.3,24.1v45.1h-46.1
	h-67.4l-42.7,81.7h38.8v102.2h252.2V313.6h38.8L378.8,231.9z M283.8,150.7c12-10.9,30.3-14,41.4-14.8c-1,10.1-4.4,26.9-16.2,37.8
	c-9,8.2-21.7,12-32.1,13.7l25.8-16.9l-8.7-11.1l-23.8,15.7C272.2,166.7,276.3,157.5,283.8,150.7z M233.3,167.4
	c-13-2.2-28.7-6.9-40.1-17.3c-16-14.6-19.8-37.4-20.7-49.7c13.4,0.7,38.3,4.2,54.4,18.9c11,10,16.2,23.9,18.7,35.6l-36.1-24.6
	l-11,13.4L233.3,167.4z M124.3,293.3l21.5-41h94.3l-21.6,41H124.3z M247,395.5h-97.1v-81.9H230l17-32.2V395.5z M363.4,395.5
	L363.4,395.5h-97.2V281.4l17,32.2h80.2V395.5z M294.5,293.2l-21.6-41h94.3l21.5,41H294.5z"/>
<g>
	<path class="st0" d="M256.5,506c-66.8,0-129.6-26-176.8-73.2S6.5,322.8,6.5,256s26-129.6,73.2-176.8S189.7,6,256.5,6
		s129.6,26,176.8,73.2s73.2,110,73.2,176.8s-26,129.6-73.2,176.8S323.3,506,256.5,506z M256.5,36c-58.8,0-114,22.9-155.6,64.4
		C59.4,142,36.5,197.2,36.5,256c0,58.8,22.9,114,64.4,155.6c41.6,41.6,96.8,64.4,155.6,64.4c58.8,0,114-22.9,155.6-64.4
		s64.4-96.8,64.4-155.6c0-58.8-22.9-114-64.4-155.6C370.5,58.9,315.3,36,256.5,36z"/>
</g>
</svg>
