<svg version="1.1" id="Layer_1" xmlns="http://www.w3.org/2000/svg" xmlns:xlink="http://www.w3.org/1999/xlink" x="0px" y="0px" viewBox="47.69921875 47.69921875 404.6015625 404.6015625" style="enable-background:new 0 0 500 500;" xml:space="preserve">
<style type="text/css">
	.st0{fill:#6C7625;}
</style>
<g>
	<path class="st0" d="M204.3,322.2c-4.3-2.2-10.8-13.4-13.7-17.3c-2.9-3.8-1.6-8.5-0.6-13.1c1-4.6,1.3-8.6-0.8-11.3
		c-2-2.7-10.5-6.1-13.9-7.1c-3.5-1-6.8-2.7-9.6-4.9c-3.4-2.6-7.4-2.5-15.6-3.2c-8.2-0.7-14.3-9.8-16.6-12.7c-2-2.6-1.8,0.5-1.8,4.4
		c3.9,7.1,9.1,13.9,15.5,20.3l65.5,65.5c0.1-3.7,0.2-6.7,0.2-8.4C213.1,328.2,208.7,324.4,204.3,322.2z"></path>
	<path class="st0" d="M166.5,169.2c5.1-0.7,4.4,4.4,4.8,7.5c0.4,3.1,1.7,2.5,4.6,2.4c2.8-0.2-1.1-8.5,1.5-10.3
		c2.6-1.8,0.2-6-2.5-9.8c-0.4-0.5-0.6-1.1-0.8-1.7c-6.7,2-13,5-18.8,8.9C158.7,168.1,161.9,169.8,166.5,169.2z"></path>
	<path class="st0" d="M360.9,219.9c-1.2-0.8-10.2-1.4-13.2-2.4c-3-1-4.1-3.4-5-0.2c-1,3.2-6,1.4-6.8,0.4c-0.8-1-3.1-3.6-4.8-3
		c-1.7,0.6-4.2,2.3-7.2,3.8c-3,1.5-0.6-2.8,0.2-4.6s-11.4-6.7-16.3-6.8c-5-0.1-7.2,3.9-9.1,7.6s-9.6,5.4-13.7,7.1s-7.3-2.9-8.3-5.3
		c-1-2.4,0.9-4.4,1.4-7.9c0.4-3.4,8-3,12.5-2.8c4.5,0.1-0.4-6.4-3.6-9.4c-3.3-3,2.5-2.3,7.2-3.3c4.7-1.1,11.7-7.8,13.9-9.3
		c2.2-1.4,3.4-2.9,5.4-3.5c2-0.6,8.6,2.1,14.6,2.2c6,0.1,7.1-5.5,8.9-9.2c1.7-3.7,1-5.5-2.6-6.2c-3.5-0.7-3.9,2.7-6.9,7.6
		c-3,4.9-9,1.4-10,0.4c-1-1-1.8-3.8-2.6-6.4c-0.8-2.6-4-1.9-10.4-6.5c-3.2-2.2-1.6-5.1,1.6-8.2c-18.6,0.4-36.7,8.8-52.4,24.6
		l-3.6,3.6l-3.6-3.6c-11.4-11.4-23.9-18.8-37.2-22.1c1.2,1.8,2.7,3.5,5.6,6.3c5.2,5,9.8,17,12.7,20.9c2.9,3.8,1.1,5.1-1.7,4.7
		c-2.9-0.4-10.7,4.9-12.4,6.4c-1.7,1.5-6.5,4.3-9.5,7.2s-4.5,5.1-7.9,7c-3.4,1.9-3.3,5.1-5.4,10.9s-7.4,11.6-7.9,15.6
		c-0.4,4,1.6,8.4-0.9,9.5c-2.5,1.1-4.9-4.8-7.3-6.7s-9.6-2.4-17.6,1.1s-0.7,16,0.8,19c1.6,3,8.6-4.3,10.6-7.1c2-2.8,4.3,0.7,5.1,4.1
		c0.7,3.4-0.4,7.5,2.9,7.8c3.3,0.3,4.6,0.9,7.6,5.7c3,4.8,8.8,2.1,12.8-1.7s23.4-0.1,26.4,1c3,1.1,8.4,1.4,11.7,4.7
		c3.3,3.3,16.1,12,16.8,12.4c0.7,0.4,18.3,0.8,23.5,3.9c5.1,3.1,0.3,18.3-0.6,25.9c-0.9,7.5-6.1,12.9-8.4,15.2
		c-2.3,2.3-18.3,28.2-20.9,32c-1.2,1.7-3.5,4.4-5.9,7.2l10.6,10.6l71-71.1l2-2c-2.6-8.9-5.4-17.6-7.1-19.9c-3.3-4.6-4.4-5.5-2.4-9.6
		c2-4.1-8.9-5.1-26.6-2.8c-17.7,2.3-23.5-17.8-23.7-25.2c-0.1-7.4,14.4-20.7,16.6-22.8c2.2-2.1,2.4-2.4,8-3.7
		c5.5-1.3,23-4.6,30.8-2.3c7.8,2.3,4.8,5.8,11.4,8.1c6.5,2.3,12.7-2.3,18.5,0.1c5.8,2.4,9.8,1,13.2-2.2S362.2,220.7,360.9,219.9z"></path>
	<path class="st0" d="M364.3,241.9c0,1.3,3.4,5.5,6.4,9.3c0.2-0.4,0.4-0.8,0.5-1.2l0.1-0.3c0.1-0.3,0.2-0.5,0.3-0.8
		c0.1-0.4,0.3-0.7,0.4-1.1l0.1-0.2c0-0.1,0.1-0.2,0.1-0.3c-0.7-1.1-1.4-2.1-2-3.3C368.3,240.2,364.3,240,364.3,241.9z"></path>
	<path class="st0" d="M286.7,83c0.5-0.1,1-0.3,1.4-0.5c0.4-0.3,0.8-0.6,1.2-1.1c0.3-0.5,0.6-1,0.7-1.7c0.1-0.4,0.1-0.8,0.1-1.3
		s-0.1-1-0.3-1.5s-0.5-0.9-1-1.4s-1.1-0.7-1.9-0.9l-6.7-1.3l-1.6,8.4l6.7,1.3C285.7,83.1,286.2,83.1,286.7,83z"></path>
	<polygon class="st0" points="178,90.8 177.6,99.2 184.4,96.3 	"></polygon>
	<path class="st0" d="M361.2,128.7c0.7,0.6,1.5,1.1,2.3,1.6c0.8,0.5,1.7,0.7,2.7,0.8c1,0.1,2-0.2,3.1-0.6c1.1-0.5,2.2-1.4,3.3-2.7
		c1.1-1.3,1.9-2.5,2.2-3.6s0.4-2.2,0.2-3.1c-0.2-1-0.6-1.8-1.2-2.6c-0.6-0.8-1.2-1.5-1.9-2l-3.9-3.5l-10.8,12.3L361.2,128.7z"></path>
	<path class="st0" d="M250,47.7C138.3,47.7,47.7,138.3,47.7,250S138.3,452.3,250,452.3S452.3,361.7,452.3,250S361.7,47.7,250,47.7z
		 M392.8,131L377,144.3l8.8,10.4l-3.2,2.7l-12-14.2l19-16.1L392.8,131z M374.9,113.1c2.8,2.4,4.4,5.2,4.8,8.3
		c0.2,1.7,0.1,3.3-0.5,4.9c-0.6,1.6-1.5,3.1-2.8,4.6c-1.3,1.5-2.7,2.6-4.2,3.4c-1.5,0.8-3.1,1.1-4.8,1.1c-1.5,0-3.1-0.3-4.6-0.9
		c-1.5-0.6-2.9-1.5-4.3-2.7l-7.6-6.7l16.4-18.7L374.9,113.1z M341.5,89.6l6.5,21.7l7.9-12.8l4.2,2.6L347,122.3l-0.4-0.3l-6.6-21.5
		l-7.8,12.6l-4.2-2.6L341,89.3L341.5,89.6z M333.8,85.7l-1.6,3.9l-13-5.5l-2.4,5.7l11.5,4.9l-1.7,4l-11.5-4.9l-2.3,5.4l13,5.5
		l-1.7,3.9l-17.5-7.4l9.7-22.9L333.8,85.7z M303.6,74.4l4.7,1.4l-7.2,23.8l-4.7-1.4L303.6,74.4z M276.1,68.3l11.5,2.2
		c1.3,0.2,2.4,0.7,3.4,1.3c1,0.6,1.8,1.4,2.4,2.3c0.6,0.9,1.1,1.9,1.3,3s0.2,2.3,0,3.5c-0.3,1.8-1.1,3.4-2.4,4.6
		c-1.2,1.2-2.7,2-4.4,2.3c1.6,3.1,3.2,6.3,4.8,9.4l-5.8-1.1c-0.8-1.5-1.5-2.9-2.2-4.4c-0.7-1.5-1.4-3-2.2-4.5l-4.8-0.9l-1.5,7.8
		l-4.9-0.9L276.1,68.3z M250.5,66.6l19,0.9l-0.2,4.2l-14-0.7l-0.3,6.1l12.4,0.6l-0.2,4.4l-12.4-0.6l-0.5,10.1l-4.9-0.2L250.5,66.6z
		 M229.5,67.6l0.7,4.2L216.2,74l1,6.1l12.3-1.9l0.7,4.3l-12.3,1.9l0.9,5.8l13.9-2.2l0.7,4.2l-18.8,3l-3.9-24.6L229.5,67.6z
		 M204.9,71.8l1.2,4L199,78l5.9,19.8l-4.7,1.4l-5.9-19.8l-7.1,2.1l-1.2-4L204.9,71.8z M174.2,82.4l0.5-0.2l21.9,17.6l-4.9,2.1
		l-3.4-2.8l-11.2,4.8l-0.3,4.4l-4.9,2.1L174.2,82.4z M135.3,104.4l18.4,5.1l2.8-18.9l0.3-0.2l13.5,20.8l-4.1,2.7l-6.9-10.5
		l-1.7,12.2l-11.8-3.5l6.9,10.5l-4.1,2.7L135,104.6L135.3,104.4z M128.3,110.4l16.1,18.9l-3.8,3.2l-16.1-18.9L128.3,110.4z
		 M110.7,127.1l14.9,14.3l9.4-9.9l3,2.9l-12.8,13.4l-18-17.2L110.7,127.1z M108.2,165.3c-1.7,0.3-3.3,0.3-5,0c-1.7-0.3-3.3-1-4.7-2
		c-1.4-1-2.6-2.3-3.5-3.7s-1.4-3-1.7-4.7c-0.3-1.7-0.2-3.4,0.2-5.1c0.4-1.7,1.1-3.3,2.1-4.8c0.7-1,1.5-1.9,2.5-2.7
		c0.9-0.8,1.9-1.4,3-1.9s2.1-0.8,3.3-1c1.1-0.2,2.3-0.3,3.4-0.2l-1.2,4.8c-0.7,0-1.3,0.1-2,0.2c-0.7,0.1-1.3,0.4-2,0.6
		c-0.6,0.3-1.3,0.7-1.8,1.1c-0.6,0.4-1,1-1.5,1.6c-0.7,1-1.1,2-1.3,3.1c-0.2,1.1-0.2,2.2,0,3.2c0.2,1.1,0.6,2.1,1.2,3
		c0.6,1,1.3,1.8,2.2,2.4c0.9,0.7,1.9,1.1,3,1.3c1.1,0.2,2.2,0.2,3.2,0.1c1.1-0.2,2.1-0.5,3-1.1c1-0.6,1.8-1.3,2.5-2.3
		c0.4-0.6,0.7-1.2,1-1.9c0.2-0.7,0.4-1.4,0.4-2.1c0.1-0.7,0-1.4-0.1-2.1c-0.1-0.7-0.3-1.4-0.5-2l4.1-2.7c0.5,1,0.8,2.1,1,3.3
		c0.2,1.1,0.2,2.3,0.1,3.4c-0.1,1.2-0.4,2.3-0.8,3.4s-1,2.2-1.7,3.2c-1.1,1.5-2.3,2.7-3.8,3.7C111.4,164.3,109.9,165,108.2,165.3z
		 M386.9,225.1l0,1c0,0.3,0,0.6,0,1.1v0.2c0,0.4,0,0.8-0.1,1.1l0,0.2c0,0.4-0.1,0.7-0.1,1.1c-0.1,0.7-0.1,1.4-0.2,2.1
		c-0.1,0.5-0.1,0.9-0.2,1.4c-0.1,0.5-0.1,1-0.2,1.5l0,0.1c0,0.2-0.1,0.3-0.1,0.5c0,0.3-0.1,0.5-0.1,0.7l0,0.1
		c-0.1,0.5-0.2,0.9-0.3,1.4c-0.1,0.3-0.1,0.6-0.2,1c-0.1,0.6-0.3,1.3-0.4,1.9l-0.1,0.5c-0.1,0.2-0.1,0.5-0.2,0.7l-0.3,1.1
		c-0.1,0.3-0.2,0.6-0.2,0.9l-0.1,0.3c-0.2,0.7-0.4,1.4-0.7,2.2c-0.1,0.5-0.3,0.9-0.5,1.4c-0.1,0.4-0.3,0.8-0.4,1.1l-0.1,0.3
		c-0.1,0.3-0.2,0.6-0.3,0.8l-0.1,0.4c-0.1,0.4-0.3,0.7-0.4,1.1l-0.1,0.2c-0.2,0.4-0.3,0.8-0.5,1.2c-0.1,0.3-0.3,0.6-0.4,0.9
		l-0.1,0.2c-0.5,1.3-1.1,2.5-1.7,3.7l-0.2,0.3c-0.6,1.2-1.2,2.3-1.8,3.4c-0.3,0.6-0.6,1.2-1,1.8c-0.4,0.7-0.8,1.4-1.2,2.1
		c-0.2,0.3-0.4,0.7-0.6,1l-0.8,1.3l-0.6,0.9l-0.7,1c-0.5,0.8-1,1.5-1.6,2.2l-1.7,2.3c-0.5,0.7-1.1,1.4-1.7,2.1l-2,2.4
		c-0.2,0.3-0.5,0.6-0.8,0.9l-0.9,1c-0.6,0.7-1.3,1.4-2,2.2c-0.7,0.7-1.3,1.4-2,2.1L328,315.8L249.8,394l-40.7-40.6l-68.9-68.9
		c-9.8-9.8-17-20.5-21.5-31.8c-1.6-4-2.9-8.2-3.8-12.5l-0.1-0.6c-6.2-29.7,6.2-61,31.9-79.8c7.8-5.7,16.4-10,25.7-12.7
		c5.4-1.6,11-2.5,16.7-2.8c1-0.1,2-0.1,3-0.1c1.9,0,3.9,0,5.8,0.1c2.9,0.2,5.8,0.5,8.7,1c15.5,2.8,30.1,10.3,43.3,22.4
		c23.3-21.4,46.5-24.9,62.1-24c0.5,0,1.1,0.1,1.6,0.1l0.3,0l0.4,0c0.3,0,0.6,0.1,0.9,0.1l0.7,0.1c0.5,0.1,0.9,0.1,1.4,0.2l0.3,0
		c0.4,0.1,0.9,0.1,1.3,0.2l0.6,0.1c0.4,0.1,0.9,0.1,1.3,0.2c0.5,0.1,1,0.2,1.5,0.3l0.8,0.2c0.7,0.1,1.3,0.3,2,0.5
		c0.4,0.1,0.8,0.2,1.1,0.3c0.8,0.2,1.5,0.4,2.1,0.6c0.2,0.1,0.4,0.1,0.6,0.2h0l0.8,0.2c0.5,0.2,1.1,0.3,1.6,0.5
		c0.7,0.2,1.4,0.5,2.2,0.8l1.7,0.6l1.2,0.5c0.4,0.2,0.8,0.3,1.2,0.5l0.8,0.4c0.4,0.2,0.9,0.4,1.4,0.7l1.6,0.8
		c0.4,0.2,0.9,0.5,1.4,0.7l0.3,0.2c0.4,0.2,0.9,0.5,1.3,0.7c0.5,0.3,1,0.5,1.4,0.8l0.1,0.1c0.9,0.5,1.9,1.1,2.8,1.7l0.3,0.2l1.4,0.9
		c0.4,0.3,0.8,0.5,1.2,0.8l1.5,1.1c0.5,0.3,1,0.7,1.5,1.1c0.3,0.3,0.7,0.5,1,0.8l2.1,1.7c0.2,0.2,0.5,0.4,0.7,0.6l0.2,0.1
		c0.3,0.2,0.6,0.5,0.8,0.7l0.5,0.5c0.2,0.2,0.4,0.3,0.6,0.5c0.2,0.2,0.3,0.3,0.5,0.5c0.4,0.4,0.9,0.8,1.3,1.3l0.8,0.8
		c0.9,0.9,1.8,1.8,2.7,2.8l1.7,1.9c0.1,0.1,0.2,0.2,0.3,0.3l0.1,0.1c0.1,0.1,0.1,0.2,0.2,0.3c0.1,0.1,0.2,0.2,0.3,0.3l0.1,0.1
		c0.3,0.4,0.6,0.7,0.9,1.1l0.2,0.2c0.2,0.2,0.4,0.5,0.7,0.9c0.1,0.1,0.2,0.2,0.2,0.3c0.2,0.2,0.3,0.4,0.5,0.6
		c0.1,0.1,0.1,0.2,0.2,0.2c0.1,0.2,0.3,0.4,0.5,0.7l0.5,0.6c0.6,0.8,1.1,1.6,1.6,2.3c0.3,0.5,0.7,1,1,1.6c0.2,0.4,0.5,0.8,0.7,1.2
		l0.7,1.2l0.6,1c0.2,0.4,0.4,0.7,0.6,1.1c0.2,0.3,0.4,0.6,0.5,1c0.4,0.8,0.8,1.5,1.1,2.2l0.2,0.4c0.1,0.3,0.3,0.6,0.4,0.9
		c0.2,0.4,0.3,0.8,0.5,1.1c0.2,0.5,0.4,1,0.6,1.5c2.8,6.7,4.7,13.8,5.5,21c0.1,0.6,0.1,1.2,0.2,1.8c0.2,2.6,0.3,5.2,0.3,7.9
		L386.9,225.1z M405.2,160.7c-1.7,0-3.3,0-4.9,0.1c-1.6,0-3,0.1-4.3,0.1l-7.9,5.2l-2.7-4.1l7.9-5.2c1.3-2.7,2.6-5.5,3.7-8.3
		c1.2-2.8,2.4-5.6,3.7-8.3l3.2,4.8c-0.8,1.8-1.7,3.7-2.6,5.6c-0.9,1.9-1.8,3.8-2.6,5.6c0.9,0,2,0,3-0.1s2.1-0.1,3.2-0.1
		s2.1-0.1,3.2-0.1c1.1,0,2-0.1,3-0.1l3.2,4.8c-1.2,0-2.6,0.1-4.2,0.1C408.4,160.6,406.8,160.7,405.2,160.7z"></path>
</g>
</svg>