<?xml version="1.0" encoding="utf-8"?>
<!-- Generator: Adobe Illustrator 25.2.0, SVG Export Plug-In . SVG Version: 6.00 Build 0)  -->
<svg version="1.1" id="Capa_1" xmlns="http://www.w3.org/2000/svg" xmlns:xlink="http://www.w3.org/1999/xlink" x="0px" y="0px"
	 viewBox="0 0 512 512" style="enable-background:new 0 0 512 512;" xml:space="preserve">
<style type="text/css">
	.st0{fill:#6D7725;}
</style>
<path class="st0" d="M336.7,342.4L336.7,342.4c-5.4,0-10.7,0.8-15.8,2.4c-9.6-21.9-30.4-37.3-54.8-40.6v-78.9
	c14.2-0.9,39.8-5,57.5-22.1c25.1-24.3,23.1-64,23.1-65.7c-0.3-4.9-4.4-8.9-9.5-9.1c-1.7-0.1-42.9-2-68,22.3c-2.6,2.5-5,5.3-7.1,8.2
	c-3.7-14.3-10.6-30.2-23.5-42.7c-30-29-79.4-26.7-81.4-26.6c-5.1,0.3-9.2,4.2-9.5,9.1c-0.1,2-2.5,49.7,27.5,78.7
	c22,21.2,54.3,25.7,70.9,26.5v100.4c-24.4,3.4-45.1,18.8-54.8,40.6c-26.4-8.4-54.9,5.5-63.6,31c-1.7,4.9-2.5,10-2.5,15.2v19.5
	c0,5.4,4.5,9.7,10,9.7l0,0H377c5.5,0,10-4.3,10-9.7l0,0V391C387,364.2,364.5,342.4,336.7,342.4z M283.4,164.3
	c12.4-12,31.4-15.4,42.9-16.3c-1,11.1-4.5,29.6-16.9,41.5c-9.4,9-22.5,13.2-33.4,15.1l26.7-18.6l-9.1-12.2L269,191.1
	C271.4,181.9,275.7,171.8,283.4,164.3z M167.9,109c13.9,0.8,39.8,4.6,56.5,20.8c11.4,11,16.9,26.3,19.4,39.1l-37.4-27.1L195,156.6
	l36.1,26.1c-13.5-2.4-29.8-7.6-41.7-19C172.7,147.5,168.8,122.5,167.9,109z"/>
<g>
	<path class="st0" d="M257.5,508.5c-66.8,0-129.6-26-176.8-73.2S7.5,325.3,7.5,258.5s26-129.6,73.2-176.8s110-73.2,176.8-73.2
		s129.6,26,176.8,73.2s73.2,110,73.2,176.8s-26,129.6-73.2,176.8S324.3,508.5,257.5,508.5z M257.5,38.5c-58.8,0-114,22.9-155.6,64.4
		c-41.6,41.6-64.4,96.8-64.4,155.6c0,58.8,22.9,114,64.4,155.6c41.6,41.6,96.8,64.4,155.6,64.4c58.8,0,114-22.9,155.6-64.4
		s64.4-96.8,64.4-155.6c0-58.8-22.9-114-64.4-155.6C371.5,61.4,316.3,38.5,257.5,38.5z"/>
</g>
</svg>
