<?xml version="1.0" encoding="utf-8"?>
<!-- Generator: Adobe Illustrator 25.2.0, SVG Export Plug-In . SVG Version: 6.00 Build 0)  -->
<svg version="1.1" id="Layer_1" xmlns="http://www.w3.org/2000/svg" xmlns:xlink="http://www.w3.org/1999/xlink" x="0px" y="0px"
	 viewBox="0 0 512 512" style="enable-background:new 0 0 512 512;" xml:space="preserve">
<style type="text/css">
	.st0{fill:#6D7725;}
</style>
<g>
	<path class="st0" d="M390.5,311.4c26.3,0,47.6-21.3,47.6-47.5c0-10.8-3.7-21.3-10.5-29.7c-4.7-5.8-10.6-10.4-17.3-13.4
		c1.8-5.9,2.7-12.1,2.7-18.4c0-15.1-5.4-29.8-15.3-41.2c-8.3-9.6-19.3-16.5-31.5-19.8c-1.6-10.9-6.6-20.9-14.6-28.8
		c-9.6-9.5-22.3-14.7-35.8-14.7s-26.2,5.2-35.8,14.7c-8,7.9-13,17.9-14.6,28.8c-12.2,3.3-23.2,10.2-31.5,19.8
		c-9.9,11.5-15.3,26.1-15.3,41.2c0,6.3,0.9,12.5,2.7,18.4c-6.7,3.1-12.7,7.7-17.3,13.4c-6.8,8.4-10.5,18.9-10.5,29.7
		c0,26.2,21.4,47.5,47.6,47.5h66.3v53.3l0,0v16.6l16.7,0.1l-0.1-16.7l0,0v-53.3H390.5L390.5,311.4z M241.2,294.8
		c-17.1,0-31-13.8-31-30.9c0-14.4,9.8-26.8,23.9-30l10-2.3l-4.4-9.3c-3-6.2-4.4-12.9-4.4-19.9c0-11.2,4-22,11.3-30.4
		c7.2-8.4,17.2-13.9,28-15.7l6.9-1.1l0.1-7c0.2-18.6,15.6-33.7,34.2-33.7s34,15.1,34.2,33.7l0.1,7l6.9,1.1
		c10.9,1.7,20.8,7.3,28,15.7c7.3,8.4,11.3,19.2,11.3,30.4c0,6.9-1.5,13.6-4.4,19.9l-4.4,9.3l10,2.3c14.1,3.3,23.9,15.6,23.9,30
		c0,17-13.9,30.9-31,30.9h-66.3v-46.2l30.5-30.4l-11.8-11.7l-18.7,18.7v-55h-16.7v25.1l-18.7-18.7L277,188.3l30.5,30.4v36.4
		l-18.7-18.7L277,248.1l30.5,30.4v16.2L241.2,294.8L241.2,294.8z"/>
</g>
<g>
	<path class="st0" d="M258.5,506.9c-66.8,0-129.6-26-176.8-73.2S8.5,323.7,8.5,256.9s26-129.6,73.2-176.8
		c47.2-47.2,110-73.2,176.8-73.2s129.6,26,176.8,73.2c47.2,47.2,73.2,110,73.2,176.8s-26,129.6-73.2,176.8S325.3,506.9,258.5,506.9z
		 M258.5,36.9c-58.8,0-114,22.9-155.6,64.4c-41.6,41.6-64.4,96.8-64.4,155.6c0,58.8,22.9,114,64.4,155.6
		c41.6,41.6,96.8,64.4,155.6,64.4c58.8,0,114-22.9,155.6-64.4s64.4-96.8,64.4-155.6c0-58.8-22.9-114-64.4-155.6
		C372.5,59.8,317.3,36.9,258.5,36.9z"/>
</g>
<g>
	<path class="st0" d="M180.1,357.1L180.1,357.1c-1.8,0-3.7,0.3-5.3,0.9c-3.2-7.7-10.4-13.1-18.6-14.3V316c4.8-0.3,13.5-1.8,19.5-7.8
		c8.6-8.5,7.9-22.5,7.8-23.1c-0.1-1.8-1.4-3.1-3.2-3.2c-0.6,0-14.6-0.7-23.1,7.8c-0.9,0.9-1.7,1.9-2.5,2.9c-1.2-5-3.6-10.6-8-15
		c-10.1-10.1-27-9.4-27.6-9.4c-1.8,0.1-3.1,1.4-3.2,3.2c0,0.7-0.9,17.5,9.4,27.6c7.5,7.5,18.5,9,24.1,9.4v35.3
		c-8.2,1.2-15.3,6.6-18.6,14.3c-8.9-2.9-18.6,1.9-21.6,10.9c-0.6,1.7-0.9,3.6-0.9,5.3v6.8c0,1.9,1.6,3.5,3.5,3.5l0,0h82
		c1.9,0,3.5-1.6,3.5-3.5l0,0l0,0v-6.9C197.1,364.7,189.4,357.1,180.1,357.1z M161.9,294.5c4.2-4.2,10.7-5.5,14.6-5.7
		c-0.3,3.9-1.6,10.4-5.7,14.6c-3.2,3.2-7.7,4.7-11.4,5.3l9-6.6l-3.1-4.2l-8.4,6C157.9,300.6,159.3,297.2,161.9,294.5L161.9,294.5z
		 M122.7,275.1c4.7,0.3,13.5,1.7,19.2,7.4c3.9,3.9,5.7,9.2,6.6,13.7l-12.7-9.5l-3.9,5.2l12.3,9.1c-4.6-0.9-10.1-2.7-14.1-6.7
		C124.4,288.6,123,279.8,122.7,275.1z"/>
</g>
</svg>
