<svg width="434" height="512" viewBox="0 0 434 512" fill="none" xmlns="http://www.w3.org/2000/svg">
<path d="M333.336 0H218C162.859 0 118 44.8594 118 100V158.789C51.3516 168.508 0 226.031 0 295.336C0 306.379 8.95312 315.336 20 315.336H256C267.047 315.336 276 306.379 276 295.336C276 226.031 224.648 168.508 158 158.789V100C158 66.9141 184.914 40 218 40H333.332C366.418 40 393.332 66.9141 393.332 100V492C393.332 503.047 402.285 512 413.332 512C424.379 512 433.332 503.047 433.332 492V100C433.336 44.8594 388.473 0 333.336 0ZM233.949 275.332H42.0508C51.3086 230.852 90.8125 197.332 138 197.332C185.188 197.332 224.691 230.852 233.949 275.332ZM158 364.168V394.168C158 405.215 149.047 414.168 138 414.168C126.953 414.168 118 405.215 118 394.168V364.168C118 353.121 126.953 344.168 138 344.168C149.047 344.168 158 353.121 158 364.168ZM157.762 462V492C157.762 503.047 148.809 512 137.762 512C126.719 512 117.762 503.047 117.762 492V462C117.762 450.953 126.719 442 137.762 442C148.809 442 157.762 450.953 157.762 462ZM79.4531 364.168V394.168C79.4531 405.215 70.4961 414.168 59.4531 414.168C48.4062 414.168 39.4531 405.215 39.4531 394.168V364.168C39.4531 353.121 48.4062 344.168 59.4531 344.168C70.4961 344.168 79.4531 353.121 79.4531 364.168ZM79.2148 462V492C79.2148 503.047 70.2617 512 59.2148 512C48.168 512 39.2148 503.047 39.2148 492V462C39.2148 450.953 48.168 442 59.2148 442C70.2617 442 79.2148 450.953 79.2148 462ZM236.312 364.168V394.168C236.312 405.215 227.355 414.168 216.312 414.168C205.266 414.168 196.312 405.215 196.312 394.168V364.168C196.312 353.121 205.266 344.168 216.312 344.168C227.355 344.168 236.312 353.121 236.312 364.168ZM236.074 462V492C236.074 503.047 227.117 512 216.074 512C205.027 512 196.074 503.047 196.074 492V462C196.074 450.953 205.027 442 216.074 442C227.117 442 236.074 450.953 236.074 462Z" fill="black"/>
</svg>
